<svg width="226" height="62" viewBox="0 0 226 62" fill="none" xmlns="http://www.w3.org/2000/svg">
<path d="M73.2879 34.7966V41H71V25.4197H73.2879V27.4607C74.202 26.0234 75.9247 25 78.218 25C81.6986 25 84 27.4204 84 31.12C84 34.8196 81.6905 37.24 78.218 37.24C75.9301 37.24 74.2101 36.2167 73.2879 34.7794V34.7966ZM73.2879 29.4183V32.839C74.3021 34.5235 75.8463 35.1674 77.6285 35.1674C80.2869 35.1674 81.777 33.7301 81.777 31.1286C81.777 28.5271 80.2896 27.064 77.6285 27.064C75.8544 27.064 74.3021 27.7337 73.2879 29.4183Z" fill="white"/>
<path d="M98.5039 30.3721V34.435C98.5039 35.2684 98.6464 35.947 99 36.5946H96.6045C96.3304 36.1018 96.1879 35.55 96.1879 35.0263V35.0009C95.3382 36.0849 93.6745 37 91.4516 37C89.1109 37 86 36.0202 86 33.0835C86 30.1469 89.1109 29.184 91.4516 29.184C93.7923 29.184 95.3327 30.099 96.1879 31.183V30.3665C96.1879 27.9564 94.7571 26.878 91.9696 26.878C90.3662 26.878 89.0945 27.2412 87.8446 28.0014L87.0114 26.3909C88.3544 25.5575 90.4375 25 92.4 25C96.1879 25 98.5039 26.8527 98.5039 30.3637V30.3721ZM96.2262 32.9202C95.3546 31.366 93.5155 30.8986 91.8902 30.8986C90.4457 30.8986 88.2832 31.2872 88.2832 33.0835C88.2832 34.8799 90.443 35.2853 91.8902 35.2853C93.5155 35.2853 95.3546 34.7926 96.2262 33.2637V32.923V32.9202Z" fill="white"/>
<path d="M103 37V25.2399H105.179V27.92C105.998 26.0306 107.896 25 110 25V27.1885C107.726 27.1885 105.866 28.2873 105.179 30.4906V36.9911H103V37Z" fill="white"/>
<path d="M123.997 33.2984C123.997 35.3695 121.913 37 117.884 37C115.087 37 112.648 36.1048 111 34.7016L112.316 33.2984C113.647 34.4181 115.508 35.145 117.95 35.145C120.06 35.145 121.682 34.6118 121.682 33.5005C121.682 32.3891 120.202 32.0327 117.512 31.8307C114.4 31.6062 111.439 30.8962 111.439 28.5164C111.439 26.3386 113.73 25 117.569 25C119.901 25 122.095 25.8138 123.434 26.7652L122.161 28.3143C121.053 27.4836 119.529 26.8718 117.445 26.8466C115.898 26.8466 113.756 27.1525 113.756 28.3704C113.756 29.507 115.569 29.7091 117.91 29.855C121.417 30.0964 124 31.0337 124 33.29V33.2984H123.997Z" fill="white"/>
<path d="M132.886 35.1268C134.871 35.1268 136.11 34.5933 137.283 33.5205L138.622 35.0061C137.15 36.3709 135.281 37 132.774 37C128.477 37 126 34.6831 126 31.0211C126 27.359 128.477 25 132.617 25C136.487 25 139 27.0978 139 31.0042C139 31.271 138.976 31.4086 138.946 31.5378H128.263C128.48 33.9586 130.186 35.1381 132.894 35.1381L132.878 35.1297L132.886 35.1268ZM128.355 29.8331L136.778 29.8079C136.286 27.7746 134.754 26.8535 132.636 26.8535C130.379 26.8535 128.79 27.8533 128.352 29.8247V29.8331H128.355Z" fill="white"/>
<path d="M148.384 36.9748C144.412 36.9748 142 34.6404 142 31.0084C142 27.3765 144.412 25 148.384 25C151.265 25 153.036 26.2555 153.94 27.8669L151.872 28.8253C151.192 27.4886 149.819 26.9813 148.408 26.9813C145.959 26.9813 144.175 28.3181 144.175 31.0252C144.175 33.7324 145.967 35.0271 148.408 35.0271C149.819 35.0271 151.252 34.4946 151.932 33.1186L154 34.0518C153.096 35.7361 151.328 37 148.392 37L148.384 36.9748Z" fill="white"/>
<path d="M174.997 33.2984C174.997 35.3695 172.913 37 168.884 37C166.087 37 163.648 36.1048 162 34.7016L163.316 33.2984C164.647 34.4181 166.508 35.145 168.95 35.145C171.06 35.145 172.682 34.6118 172.682 33.5005C172.682 32.3891 171.202 32.0327 168.512 31.8307C165.4 31.6062 162.439 30.8962 162.439 28.5164C162.439 26.3386 164.73 25 168.569 25C170.901 25 173.095 25.8138 174.434 26.7652L173.161 28.3143C172.053 27.4836 170.529 26.8718 168.445 26.8466C166.898 26.8466 164.756 27.1525 164.756 28.3704C164.756 29.507 166.569 29.7091 168.91 29.855C172.417 30.0964 175 31.0337 175 33.29V33.2984H174.997Z" fill="white"/>
<path d="M195 26L190.771 37H188.345L185.029 28.3878L181.681 37H179.229L175 26H177.475L180.614 34.4709L183.878 26H186.18L189.443 34.4709L192.586 26H194.994H195Z" fill="white"/>
<path d="M209.428 30.3721V34.435C209.428 35.2684 209.592 35.947 210 36.5946H207.236C206.92 36.1018 206.755 35.55 206.755 35.0263V35.0009C205.775 36.0849 203.855 37 201.29 37C198.589 37 195 36.0202 195 33.0835C195 30.1469 198.589 29.184 201.29 29.184C203.991 29.184 205.768 30.099 206.755 31.183V30.3665C206.755 27.9564 205.104 26.878 201.888 26.878C200.038 26.878 198.571 27.2412 197.128 28.0014L196.167 26.3909C197.717 25.5575 200.12 25 202.385 25C206.755 25 209.428 26.8527 209.428 30.3637V30.3721ZM206.799 32.9202C205.794 31.366 203.672 30.8986 201.796 30.8986C200.13 30.8986 197.634 31.2872 197.634 33.0835C197.634 34.8799 200.126 35.2853 201.796 35.2853C203.672 35.2853 205.794 34.7926 206.799 33.2637V32.923V32.9202Z" fill="white"/>
<path d="M214.464 34.7966V41H212V25.4197H214.464V27.4607C215.448 26.0234 217.304 25 219.773 25C223.522 25 226 27.4204 226 31.12C226 34.8196 223.513 37.24 219.773 37.24C217.309 37.24 215.457 36.2167 214.464 34.7794V34.7966ZM214.464 29.4183V32.839C215.556 34.5235 217.219 35.1674 219.138 35.1674C222.001 35.1674 223.603 33.7301 223.603 31.1286C223.603 28.5271 222.001 27.064 219.138 27.064C217.228 27.064 215.556 27.7337 214.464 29.4183Z" fill="white"/>
<rect width="62.2114" height="62" rx="31" fill="url(#paint0_linear_1112_2109)"/>
<path d="M18.8345 44.3805C20.1049 43.051 21.3214 41.6104 22.7174 40.3704C23.7078 39.4924 25.0033 39.5103 26.3024 39.8042C27.8527 40.1554 29.4424 40.6894 30.9963 40.6356C37.5275 40.4098 41.8159 33.841 39.573 27.7022C39.39 27.2041 39.1711 26.6988 39.0921 26.1792C38.9055 24.9213 39.2859 23.8032 40.1687 22.8965C41.3099 21.7247 42.4905 20.5958 43.6568 19.4419C43.6819 19.4777 43.7393 19.5387 43.7322 19.553C42.9714 20.6783 43.2621 21.6315 43.9547 22.7424C47.6868 28.7558 47.0014 36.3388 42.3434 41.6534C38.2596 46.3121 31.33 48.1362 25.3694 46.029C24.0846 45.5739 22.8753 44.8751 21.6875 44.1942C20.898 43.7426 20.1946 43.5814 19.4087 44.1189C19.2185 44.2479 18.9853 44.3196 18.8417 44.3841L18.8345 44.3805Z" fill="white"/>
<path d="M17.1786 42.5231C18.2649 41.1546 17.4511 40.1407 16.8022 39.0445C10.9764 29.2211 17.4116 16.4852 28.762 15.3137C32.2252 14.9554 35.4446 15.6576 38.4525 17.3736C40.2235 18.3839 40.2164 18.4018 42.0089 17.911C40.8151 19.1291 39.6679 20.426 38.3844 21.576C37.1117 22.7188 35.6239 22.6973 34.0572 22.0954C29.54 20.3543 24.7037 21.9593 22.2264 26.0291C20.6095 28.6873 20.3227 31.5355 21.4377 34.4337C22.2121 36.4543 21.9862 38.1453 20.3729 39.6535C19.3727 40.5886 18.4621 41.6239 17.5084 42.6163C17.3973 42.5876 17.2862 42.559 17.175 42.5303L17.1786 42.5231Z" fill="white"/>
<path d="M47.2357 16.0275C47.2286 16.9379 46.5332 17.6261 45.63 17.6154C44.7554 17.6046 44.0135 16.8591 44.0242 15.9988C44.035 15.1278 44.7805 14.4038 45.6586 14.4038C46.5511 14.4038 47.2429 15.1171 47.2357 16.0275Z" fill="white"/>
<defs>
<linearGradient id="paint0_linear_1112_2109" x1="3.02955" y1="62" x2="62.2114" y2="62" gradientUnits="userSpaceOnUse">
<stop stop-color="#991CD1"/>
<stop offset="1" stop-color="#D4307A"/>
</linearGradient>
</defs>
</svg>
